<?xml version="1.0" encoding="UTF-8"?>
<svg id="Layer_1" xmlns="http://www.w3.org/2000/svg" viewBox="0 0 2089.14 582.35">
  <defs>
    <style>
      .cls-1 {
        fill: #fff;
      }
    </style>
  </defs>
  <g>
    <path class="cls-1" d="M1412.24,465.79v.1h12.21v-.1h-12.21Z"/>
    <path class="cls-1" d="M1016.48,115.94v466.41h278.36v.13h175.5c26.81,0,52.6-3.46,77.38-10.36,24.78-6.91,48-16.72,69.67-29.45,14.41-8.47,27.92-18.04,40.53-28.73v68.41h257.44c23.98,0,46.54-4.6,67.7-13.8,21.14-9.2,39.6-21.73,55.36-37.56,15.77-15.83,28.16-34.31,37.19-55.42,9.02-21.11,13.53-43.71,13.53-67.8s-4.51-46.76-13.53-68.01c-9.03-21.24-21.42-39.79-37.19-55.62-15.76-15.83-34.22-28.28-55.36-37.35-21.16-9.07-43.72-13.6-67.7-13.6h-115.99c-8.08,0-15.63-1.49-22.63-4.47-7.01-2.98-13.14-7.11-18.39-12.38-4.7-4.73-8.48-10.2-11.35-16.45,0-.01,0-.02,0-.03-.34-.72-.66-1.46-.97-2.2-1.09-2.63-1.97-5.32-2.66-8.08-1.19-4.76-1.78-9.72-1.78-14.86,0-8.12,1.48-15.69,4.44-22.74,2.97-7.03,7.08-13.19,12.33-18.47,5.25-5.28,11.38-9.4,18.39-12.38,7-2.98,14.55-4.47,22.63-4.47h265.93V.14h-265.93c-23.98,0-46.47,4.6-67.49,13.8-21.02,9.21-39.4,21.72-55.17,37.56-5.94,5.96-11.41,12.3-16.41,19.01-13.29-11.51-27.59-21.76-42.91-30.76-21.67-12.73-44.89-22.55-69.67-29.45C1522.94,3.39,1497.15-.06,1470.34-.06h-210.5l35,46.11v419.74h-161.74V-.06h-34.35v-.21h-569.54l35,46.11v536.51h392.16v-116.6h-275.56v-116.2h191.37v-116.61h-191.37v-116.6l335.67-.4ZM1631.41,359.25c-9.08,21.27-21.53,39.81-37.38,55.66-15.84,15.84-34.39,28.3-55.65,37.37-21.26,9.08-43.94,13.61-68.04,13.61h-58.1V116.53h58.1c24.1,0,46.78,4.6,68.04,13.81,21.26,9.21,39.81,21.73,55.65,37.57,15.85,15.85,28.3,34.33,37.38,55.46,9.07,21.12,13.61,43.74,13.61,67.84s-4.54,46.78-13.61,68.04ZM1968.71,430.5c-2.97,7.05-7.07,13.2-12.33,18.48-5.25,5.28-11.38,9.41-18.39,12.38-7.01,2.98-14.55,4.47-22.63,4.47h-212.14c6.69-8.87,12.88-18.13,18.58-27.77,12.72-21.53,22.54-44.69,29.45-69.47,2.21-7.93,4.06-15.96,5.57-24.1,13.62,3.48,27.8,5.22,42.55,5.22h115.99c8.08,0,15.62,1.49,22.63,4.47,7.01,2.98,13.14,7.1,18.39,12.38,5.26,5.28,9.36,11.44,12.33,18.47,2.96,7.04,4.44,14.62,4.44,22.74s-1.48,15.7-4.44,22.73Z"/>
  </g>
  <g>
    <polygon class="cls-1" points="151.9 233.14 326.54 233.14 326.54 349.69 151.9 349.69 151.9 582.42 35.33 582.42 35.33 46.54 35 46.11 0 0 35.33 0 482.92 -.2 482.92 116.57 151.9 116.57 151.9 233.14"/>
    <polygon class="cls-1" points="241.63 116.74 151.9 116.74 151.9 116.57 241.5 116.57 241.63 116.74"/>
    <polygon class="cls-1" points="326.64 233.48 326.64 350.21 266.41 350.21 266.02 349.69 326.54 349.69 326.54 233.48 326.64 233.48"/>
  </g>
  <polygon class="cls-1" points="503.2 278.99 503.2 582.42 386.68 582.42 386.68 279.08 351.68 232.97 468.27 232.97 503.2 278.99"/>
</svg>